<svg width="262" height="66" viewBox="0 0 262 66" fill="none" xmlns="http://www.w3.org/2000/svg">
<g clip-path="url(#clip0_1803_261)">
<path d="M50.0615 51.7591L63.6585 7.82227L75.08 35.832H83.7818" stroke="#FF2F00" stroke-width="11.7331" stroke-linecap="round" stroke-linejoin="round"/>
<path d="M64.1406 39.1104H76.106L84.2645 59.4311" stroke="#FF2F00" stroke-width="11.7331" stroke-linecap="round" stroke-linejoin="round"/>
<path d="M95.2031 59.4475L97.9229 10.0186L119.678 24.298L118.59 45.168L99.5538 56.7015" stroke="#FF2F00" stroke-width="11.7331" stroke-linecap="round" stroke-linejoin="round"/>
<path d="M14.8623 55.537L17.2089 6.25781L43.0218 15.6443L23.4666 28.1597L42.2396 42.2394L14.8623 55.537Z" stroke="#FF2F00" stroke-width="11.7331" stroke-linecap="round" stroke-linejoin="round"/>
<path d="M50.0615 51.7591L63.6585 7.82227L75.08 35.832H83.7818" stroke="#FFA52D" stroke-width="2.34663" stroke-linecap="round" stroke-linejoin="round"/>
<path d="M64.1406 39.1104H76.106L84.2645 59.4311" stroke="#FFA52D" stroke-width="2.34663" stroke-linecap="round" stroke-linejoin="round"/>
<path d="M95.2031 59.4475L97.9229 10.0186L119.678 24.298L118.59 45.168L99.5538 56.7015" stroke="#FFA52D" stroke-width="2.34663" stroke-linecap="round" stroke-linejoin="round"/>
<path d="M14.8623 55.537L17.2089 6.25781L43.0218 15.6443L23.4666 28.1597L42.2396 42.2394L14.8623 55.537Z" stroke="#FFA52D" stroke-width="2.34663" stroke-linecap="round" stroke-linejoin="round"/>
<path d="M209.013 52.5402L195.415 8.60352L183.994 36.6136H175.292" stroke="#FF2F00" stroke-width="11.7331" stroke-linecap="round" stroke-linejoin="round"/>
<path d="M193.851 39.8916H181.886L173.728 60.2126" stroke="#FF2F00" stroke-width="11.7331" stroke-linecap="round" stroke-linejoin="round"/>
<path d="M165.135 7.82129H139.536L136.976 57.2498L164.495 44.1111L142.096 29.0942" stroke="#FF2F00" stroke-width="11.7331" stroke-linecap="round" stroke-linejoin="round"/>
<path d="M222.236 57.1004L224.899 7.82129L247.267 23.3552L227.529 33.8211" stroke="#FF2F00" stroke-width="10.9509" stroke-linecap="round" stroke-linejoin="round"/>
<path d="M209.013 52.5402L195.415 8.60352L183.994 36.6136H175.292" stroke="#FFA52D" stroke-width="2.34663" stroke-linecap="round" stroke-linejoin="round"/>
<path d="M193.851 39.8916H181.886L173.728 60.2126" stroke="#FFA52D" stroke-width="2.34663" stroke-linecap="round" stroke-linejoin="round"/>
<path d="M165.135 7.82129H139.536L136.976 57.2498L164.495 44.1111L142.096 29.0942" stroke="#FFA52D" stroke-width="2.34663" stroke-linecap="round" stroke-linejoin="round"/>
<path d="M222.236 57.1004L224.899 7.82129L247.267 23.3552L227.529 33.8211" stroke="#FFA52D" stroke-width="2.34663" stroke-linecap="round" stroke-linejoin="round"/>
</g>
<defs>
<clipPath id="clip0_1803_261">
<rect width="262" height="66" fill="white"/>
</clipPath>
</defs>
</svg>
